<?xml version="1.0"?><svg width="1800" height="600" xmlns="http://www.w3.org/2000/svg">

 <g>
  <title>Layer 1</title>
  <g id="svg_19">
   <g id="svg_5">
    <g id="svg_6">
     <g transform="matrix(0.104585 0 0 -0.0394749 -2312.91 993.293)" fill="#cc6633" id="svg_7">
      <path d="m22500.412109,24427.345703l0,-750l750,0l0,750l-750,0zm750,250l250,0l0,-250l0,-750l0,-250l-250,0l-750,0l-250,0l0,250l0,750l0,250l250,0l750,0zm-750,-1750l0,-2000l1250,0l0,1250l-500,0l0,-750l-250,0l0,750l0,250l750,0l250,0l0,-250l0,-1250l0,-250l-250,0l-500,0l0,-1500l750,0l0,-250l-750,0l-250,0l0,250l0,1500l-500,0l0,-3000l-250,0l0,5250l0,250l1500,0l0,1500l250,0l2000,0l250,0l3000,0l0,-250l-3000,0l0,-500l1500,0l250,0l0,-1000l-250,0l0,750l-1500,0l0,-750l-250,0l-1250,0l-250,0l0,250l0,750l250,0l1250,0l0,500l-2000,0l0,-1500l-250,0l-1250,0zm3500,750l-1250,0l0,-500l1250,0l0,500zm-1250,-1500l0,-750l750,0l0,750l-750,0zm750,250l250,0l0,-250l0,-750l0,-250l-250,0l-750,0l-250,0l0,250l0,750l0,250l250,0l750,0z" id="svg_8"/>
     </g>
    </g>
    <g transform="matrix(-2.88213e-007 2.70821 -6.59354 -1.1838e-007 -417.794 -599.629)" id="svg_9">
     <g transform="matrix(0.0147188 0 0 -0.014576 28.3365 413.009)" fill="#cc6633" id="svg_10">
      <path d="m13789.47168,50854.335938l0,-750l750,0l0,750l-750,0zm750,250l250,0l0,-250l0,-750l0,-250l-250,0l-750,0l-250,0l0,250l0,750l0,250l250,0l750,0zm-750,-1750l0,-2000l1250,0l0,1250l-500,0l0,-750l-250,0l0,750l0,250l750,0l250,0l0,-250l0,-1250l0,-250l-250,0l-500,0l0,-1500l750,0l0,-250l-750,0l-250,0l0,250l0,1500l-500,0l0,-3000l-250,0l0,5250l0,250l1500,0l0,1500l250,0l1999.999023,0l250,0l3000.001953,0l0,-250l-3000.001953,0l0,-500l1500,0l250.001953,0l0,-1000l-250.001953,0l0,750l-1500,0l0,-750l-250,0l-1249.999023,0l-250,0l0,250l0,750l250,0l1249.999023,0l0,500l-1999.999023,0l0,-1500l-250,0l-1250,0zm3499.999023,750l-1249.999023,0l0,-500l1249.999023,0l0,500zm-1249.999023,-1500l0,-750l749.999023,0l0,750l-749.999023,0zm749.999023,250l250,0l0,-250l0,-750l0,-250l-250,0l-749.999023,0l-250,0l0,250l0,750l0,250l250,0l749.999023,0z" id="svg_11"/>
     </g>
    </g>
   </g>
   <g transform="rotate(180 893 439)" id="svg_12">
    <g id="svg_13">
     <g transform="matrix(0.104585 0 0 -0.0394749 -2312.91 993.293)" fill="#cc6633" id="svg_14">
      <path d="m22506.771484,17266.693359l0,-750l750.001953,0l0,750l-750.001953,0zm750.001953,250l250,0l0,-250l0,-750l0,-250l-250,0l-750.001953,0l-250,0l0,250l0,750l0,250l250,0l750.001953,0zm-750.001953,-1750l0,-2000l1250.001953,0l0,1250l-500,0l0,-750l-250.001953,0l0,750l0,250l750.001953,0l250,0l0,-250l0,-1250l0,-250l-250,0l-500,0l0,-1500l750,0l0,-250l-750,0l-250.001953,0l0,250l0,1500l-500,0l0,-3000l-250,0l0,5250l0,250l1500.001953,0l0,1500l250,0l2000,0l250,0l3000,0l0,-250l-3000,0l0,-500l1500,0l250,0l0,-1000l-250,0l0,750l-1500,0l0,-750l-250,0l-1250,0l-250,0l0,250l0,750l250,0l1250,0l0,500l-2000,0l0,-1500l-250,0l-1250.001953,0zm3500.001953,750l-1250,0l0,-500l1250,0l0,500zm-1250,-1500l0,-750l750,0l0,750l-750,0zm750,250l250,0l0,-250l0,-750l0,-250l-250,0l-750,0l-250,0l0,250l0,750l0,250l250,0l750,0z" id="svg_15"/>
     </g>
    </g>
    <g transform="matrix(-2.88213e-007 2.70821 -6.59354 -1.1838e-007 -417.794 -599.629)" id="svg_16">
     <g transform="matrix(0.0147188 0 0 -0.014576 28.3365 413.009)" fill="#cc6633" id="svg_17">
      <path d="m20880.6875,50861.242188l0,-750l750,0l0,750l-750,0zm750,250l250,0l0,-250l0,-750l0,-250l-250,0l-750,0l-250,0l0,250l0,750l0,250l250,0l750,0zm-750,-1750l0,-2000l1250,0l0,1250l-500,0l0,-750l-250,0l0,750l0,250l750,0l250,0l0,-250l0,-1250l0,-250l-250,0l-500,0l0,-1500l750,0l0,-250l-750,0l-250,0l0,250l0,1500l-500,0l0,-3000l-250,0l0,5250l0,250l1500,0l0,1500l250,0l2000,0l250,0l3000,0l0,-250l-3000,0l0,-500l1500,0l250,0l0,-1000l-250,0l0,750l-1500,0l0,-750l-250,0l-1250,0l-250,0l0,250l0,750l250,0l1250,0l0,500l-2000,0l0,-1500l-250,0l-1250,0zm3500,750l-1250,0l0,-500l1250,0l0,500zm-1250,-1500l0,-750l750,0l0,750l-750,0zm750,250l250,0l0,-250l0,-750l0,-250l-250,0l-750,0l-250,0l0,250l0,750l0,250l250,0l750,0z" id="svg_18"/>
     </g>
    </g>
   </g>
  </g>
 </g>
</svg>